<?xml version="1.0" encoding="UTF-8"?>
<svg id="Livello_1" data-name="Livello 1" xmlns="http://www.w3.org/2000/svg" viewBox="0 0 662.49 500">
  <defs>
    <style>
      .cls-1 {
        fill: #1d1d1b;
      }
    </style>
  </defs>
  <path class="cls-1" d="M34.84,238.5h16.55v8.93c2.86-6.41,7.89-9.62,14.99-9.62s11.09,3.03,11.87,9.1c2.69-5.55,8.41-9.1,16.47-9.1,10.75,0,15.86,5.63,15.86,18.89v25.83h-16.55v-25.31c0-3.73-1.47-5.55-5.2-5.55-4.77,0-6.67,2.95-7.28,7.37-.35,2.17-.52,5.37-.52,9.45v14.04h-16.73l.17-.43v-24.87c0-3.21-1.73-5.03-5.2-5.03-4.77,0-6.76,2.43-7.37,6.85-.35,2.17-.52,5.37-.52,9.45v14.04h-16.55v-44.03Zm98.98,17.94l13.26-.35v-.26c0-3.81-1.91-5.72-7.37-5.72-4.94,0-7.54,1.21-7.97,3.55l-15.25-1.47c.43-6.5,4.94-10.57,10.83-12.91,2.95-1.13,7.63-1.65,14.04-1.65h.95c5.98,.09,10.92,1.3,14.82,3.81,3.9,2.51,5.81,6.85,5.81,12.91v13.61h6.33v14.56h-10.57c-4.51,0-7.19-2.51-7.19-7.02v-3.03c-3.21,7.97-8.75,10.92-19.76,10.92-6.24,0-10.57-1.39-13-4.07-2.43-2.69-3.64-5.55-3.64-8.75,0-8.58,5.29-13.78,18.72-14.13Zm2.08,14.65c2.86,0,5.37-.78,7.63-2.34,2.17-1.47,3.29-3.03,3.29-4.68l-10.14,.52c-4.51,.26-5.63,1.3-5.63,3.12,0,2.08,1.82,3.38,4.85,3.38Zm34.32-32.59h7.02v-7.11l16.55-5.2v12.31h11.27v14.56h-11.27v14.91h13.43v14.56h-22.01c-5.11,0-7.97-2.86-7.97-7.97v-21.49h-7.02v-14.56Zm55.82,0c5.2,0,8.23,2.69,8.23,7.8l.43,36.23h-16.73v-29.47h-6.85v-14.56h14.91Zm-10.31-11.09c0-4.85,3.38-7.45,9.19-7.45s9.53,2.6,9.53,7.71-3.64,7.71-9.53,7.71-9.1-2.6-9.19-7.71v-.26Zm38.48,11.35l9.36,32.33,9.62-32.16h16.12l-14.13,43.6h-23.31l-14.39-43.77h16.73Zm35.45,21.67c0-15.6,8.75-22.88,24.62-22.88,8.75,0,14.99,1.99,18.72,6.07,3.73,4.07,5.63,9.45,5.63,16.29v3.81h-32.24v.35c0,4.51,2.43,7.45,8.06,7.54h.43c4.25,0,7.19-1.91,7.54-4.68h16.21c-.43,10.83-9.71,16.47-24.27,16.47-8.41,0-14.56-2.08-18.63-6.33-4.07-4.16-6.07-9.71-6.07-16.64Zm33.02-4.25c0-4.59-3.03-7.28-8.15-7.28s-8.32,2.69-8.32,7.28h16.47Z"/>
  <g>
    <path class="cls-1" d="M390.07,248.25c1.75-3.5,4.3-6.25,7.64-8.27,3.35-2.01,7.36-3.02,12.05-3.02,3.02,0,5.98,.59,8.89,1.78,2.9,1.19,5.42,3.1,7.56,5.73,2.13,2.64,3.41,5.97,3.82,10h-6.67c-.65-4.21-2.19-7.25-4.62-9.11-2.43-1.87-5.42-2.8-8.98-2.8s-6.43,.77-8.8,2.31c-2.37,1.54-4.12,3.62-5.24,6.22-1.13,2.61-1.69,5.51-1.69,8.71s.56,6.21,1.69,8.84c1.12,2.64,2.87,4.73,5.24,6.27,2.37,1.54,5.3,2.31,8.8,2.31s6.55-.93,8.98-2.8c2.43-1.87,3.97-4.9,4.62-9.11h6.67c-.42,4.03-1.69,7.36-3.82,10-2.13,2.64-4.65,4.55-7.56,5.73-2.9,1.18-5.87,1.78-8.89,1.78-4.68,0-8.7-1.02-12.05-3.07-3.35-2.04-5.9-4.8-7.64-8.27-1.75-3.47-2.62-7.36-2.62-11.69s.87-8.06,2.62-11.56Z"/>
    <path class="cls-1" d="M436.52,277.2h12.36v-54.14h-8.98v-5.6h11.47c1.3,0,2.31,.34,3.02,1.02,.71,.68,1.07,1.64,1.07,2.89v55.83h12.36v5.6h-31.29v-5.6Z"/>
    <path class="cls-1" d="M475.24,248.29c1.92-3.47,4.62-6.22,8.09-8.27,3.47-2.04,7.51-3.07,12.13-3.07s8.59,1.02,12.09,3.07c3.5,2.05,6.19,4.82,8.09,8.31,1.9,3.5,2.84,7.32,2.84,11.47s-.95,8.15-2.84,11.65c-1.9,3.5-4.59,6.27-8.09,8.31-3.5,2.05-7.53,3.07-12.09,3.07s-8.68-1.02-12.18-3.07c-3.5-2.04-6.19-4.81-8.09-8.31-1.9-3.5-2.84-7.38-2.84-11.65s.96-8.05,2.89-11.51Zm5.56,20.27c1.24,2.64,3.13,4.74,5.65,6.31,2.52,1.57,5.53,2.36,9.02,2.36s6.4-.79,8.89-2.36c2.49-1.57,4.39-3.67,5.69-6.31,1.3-2.64,1.96-5.56,1.96-8.76s-.65-6.01-1.96-8.62c-1.3-2.61-3.2-4.7-5.69-6.27-2.49-1.57-5.45-2.36-8.89-2.36s-6.5,.79-9.02,2.36c-2.52,1.57-4.4,3.66-5.65,6.27-1.24,2.61-1.87,5.48-1.87,8.62s.62,6.12,1.87,8.76Z"/>
    <path class="cls-1" d="M536.26,280.3c-2.37-1.39-4.18-3.42-5.42-6.09-1.24-2.67-1.87-5.93-1.87-9.78v-27.02h6.58v26.4c0,4.62,.93,7.94,2.8,9.96,1.87,2.02,4.76,3.02,8.67,3.02,3.26,0,6.1-.84,8.53-2.53,2.43-1.69,4.3-4.06,5.6-7.11,1.3-3.05,1.96-6.53,1.96-10.44v-19.29h6.58v44.09h-6.58v-13.69h.36c-1.01,4.62-3.11,8.21-6.31,10.76-3.2,2.55-7.32,3.82-12.36,3.82-3.32,0-6.16-.7-8.53-2.09Z"/>
    <path class="cls-1" d="M590.94,279.94c-3.14-1.93-5.57-4.64-7.29-8.13-1.72-3.5-2.58-7.5-2.58-12s.86-8.39,2.58-11.82c1.72-3.44,4.15-6.13,7.29-8.09,3.14-1.96,6.76-2.93,10.85-2.93,3.38,0,6.41,.58,9.11,1.73,2.7,1.16,4.93,2.76,6.71,4.8,1.78,2.05,3.11,4.49,4,7.33h-.53v-34.23h6.58v65.34h-6.58v-12.89h.53c-.95,2.79-2.33,5.22-4.13,7.29-1.81,2.08-4.03,3.68-6.67,4.8-2.64,1.13-5.64,1.69-9.02,1.69-4.09,0-7.71-.96-10.85-2.89Zm21.25-4.71c2.61-1.33,4.7-3.29,6.27-5.87,1.57-2.58,2.36-5.76,2.36-9.56s-.79-6.73-2.36-9.33c-1.57-2.61-3.66-4.58-6.27-5.91-2.61-1.33-5.42-2-8.45-2s-5.75,.65-8.18,1.96c-2.43,1.3-4.36,3.24-5.78,5.82-1.42,2.58-2.13,5.73-2.13,9.47s.71,7.07,2.13,9.64c1.42,2.58,3.35,4.52,5.78,5.82,2.43,1.3,5.16,1.96,8.18,1.96s5.84-.67,8.45-2Z"/>
  </g>
</svg>